<svg width="24" height="24" viewBox="0 0 24 24" fill="none" xmlns="http://www.w3.org/2000/svg">
<path d="M4.41999 20.579C4.28125 20.5788 4.14408 20.5497 4.0172 20.4936C3.89031 20.4374 3.7765 20.3555 3.68299 20.253C3.58779 20.1514 3.51514 20.0308 3.46982 19.8991C3.42449 19.7675 3.40751 19.6277 3.41999 19.489L3.66499 16.795L14.983 5.48103L18.52 9.01703L7.20499 20.33L4.51099 20.575C4.48074 20.5778 4.45037 20.5792 4.41999 20.579V20.579ZM19.226 8.31003L15.69 4.77403L17.811 2.65303C17.9039 2.56005 18.0142 2.48629 18.1355 2.43597C18.2569 2.38564 18.3871 2.35974 18.5185 2.35974C18.6499 2.35974 18.78 2.38564 18.9014 2.43597C19.0228 2.48629 19.1331 2.56005 19.226 2.65303L21.347 4.77403C21.44 4.8669 21.5137 4.97719 21.5641 5.09859C21.6144 5.21999 21.6403 5.35011 21.6403 5.48153C21.6403 5.61294 21.6144 5.74307 21.5641 5.86447C21.5137 5.98587 21.44 6.09615 21.347 6.18903L19.227 8.30903L19.226 8.31003V8.31003Z" fill="black"/>
</svg>
